<svg width="38" height="45" viewBox="0 0 38 45" fill="none" xmlns="http://www.w3.org/2000/svg">
<g clip-path="url(#clip0_2005_101)">
<path fill-rule="evenodd" clip-rule="evenodd" d="M28.5 8.4375H9.5C8.7495 8.4375 8.14286 9.0675 8.14286 9.84375C8.14286 10.6214 8.7495 11.25 9.5 11.25H28.5C29.2504 11.25 29.8571 10.6214 29.8571 9.84375C29.8571 9.0675 29.2504 8.4375 28.5 8.4375ZM28.5 16.8441H9.5C8.7495 16.8441 8.14286 17.4727 8.14286 18.2504C8.14286 19.0252 8.7495 19.6566 9.5 19.6566H28.5C29.2504 19.6566 29.8571 19.0252 29.8571 18.2504C29.8571 17.4727 29.2504 16.8441 28.5 16.8441ZM28.5 25.3125H9.5C8.7495 25.3125 8.14286 25.9411 8.14286 26.7188C8.14286 27.4964 8.7495 28.125 9.5 28.125H28.5C29.2504 28.125 29.8571 27.4964 29.8571 26.7188C29.8571 25.9411 29.2504 25.3125 28.5 25.3125ZM35.2857 37.3397C35.2857 40.038 33.0983 42.2254 30.4 42.2254H24.4286H19H13.5714H8.68571C5.39511 42.2503 2.71429 39.5896 2.71429 36.2989V5.625C2.71429 4.0725 3.93029 2.8125 5.42857 2.8125H32.5714C34.0697 2.8125 35.2857 4.0725 35.2857 5.625V37.3397ZM32.5714 0H5.42857C2.43064 0 0 2.51859 0 5.625V42.4662C0 43.8656 1.13442 45 2.5338 45H8.14286H13.5714H19H24.4286H29.8571H35.4676C36.8662 45 38 43.8662 38 42.4676V5.625C38 2.51859 35.5694 0 32.5714 0Z" fill="white"/>
</g>
<defs>
<clipPath id="clip0_2005_101">
<rect width="38" height="45" rx="5" fill="white"/>
</clipPath>
</defs>
</svg>
