<svg width="43" height="43" viewBox="0 0 43 43" fill="none" xmlns="http://www.w3.org/2000/svg">
<path d="M10.1661 0.0366077L32.3595 0.117697L32.2608 27.1377L18.235 42.0664L16.1029 40.0987C15.892 39.8995 15.7287 39.6247 15.613 39.2743C15.4973 38.9238 15.4403 38.5329 15.4418 38.1013L15.444 37.506L17.7212 27.0846L3.41574 27.0323C2.52432 27.029 1.74564 26.6762 1.07971 25.9738C0.413777 25.2713 0.0825178 24.4534 0.0859283 23.5199L0.10151 19.2554C0.102418 19.0069 0.0978463 18.7484 0.0877971 18.4799C0.0777479 18.2114 0.117626 17.9548 0.20743 17.7102L6.47948 2.64816C6.78029 1.9202 7.27941 1.30217 7.97683 0.794065C8.67426 0.28631 9.40401 0.0338233 10.1661 0.0366077ZM29.0046 3.60564L9.71861 3.53517L3.44554 18.877L3.42853 23.5321L21.9124 23.5997L19.1922 36.1547L28.9241 25.6555L29.0046 3.60564ZM32.2608 27.1377L32.2736 23.6375L38.7247 23.6611L38.7978 3.64142L32.3467 3.61785L32.3595 0.117697L42.1532 0.15348L42.0545 27.1735L32.2608 27.1377Z" fill="white"/>
</svg>
