<svg width="43" height="43" viewBox="0 0 43 43" fill="none" xmlns="http://www.w3.org/2000/svg">
<path d="M10.697 0.431939L32.8905 0.369935L32.966 27.39L19.0367 42.4088L16.8919 40.455C16.6798 40.2571 16.5147 39.9833 16.3968 39.6337C16.2788 39.284 16.2192 38.8934 16.218 38.4618L16.2164 37.8665L18.4263 27.4306L4.12081 27.4706C3.22938 27.4731 2.44845 27.1253 1.778 26.4271C1.10756 25.729 0.771029 24.9132 0.768422 23.9798L0.756507 19.7152C0.755813 19.4667 0.749575 19.2083 0.737795 18.9398C0.726015 18.6714 0.764238 18.4146 0.852463 18.1693L7.02727 3.0672C7.32338 2.33732 7.8185 1.71609 8.51264 1.2035C9.20678 0.691254 9.93488 0.434068 10.697 0.431939ZM29.5581 3.87943L10.2721 3.93331L4.09803 19.3153L4.11103 23.9704L22.5949 23.9188L19.9557 36.491L29.6197 25.9293L29.5581 3.87943ZM32.966 27.39L32.9562 23.8898L39.4073 23.8718L39.3513 3.85207L32.9003 3.8701L32.8905 0.369935L42.6842 0.342574L42.7597 27.3626L32.966 27.39Z" fill="white"/>
<path d="M14.7657 12.4568C15.0623 12.2546 15.4738 12.0936 17.0008 11.8475C18.2667 11.6435 20.539 11.3385 21.9253 11.1071C23.3115 10.8757 23.7453 10.7424 24.4398 10.4438C26.097 9.7312 27.2097 9.15942 27.4857 9.03488C27.6084 8.9795 27.6583 8.8706 27.645 8.76379C27.6317 8.65699 27.5439 8.53784 27.3693 8.45773C26.9612 8.27046 26.1081 8.29352 23.9847 8.46855C22.4172 8.59775 19.8766 9.02598 18.4522 9.21815C16.8063 9.44022 16.3947 9.37251 15.8185 9.1224C14.727 8.64864 14.0419 7.95119 13.793 7.65454C13.5441 7.35802 13.1648 7.16598 12.5111 6.89697C10.4935 6.0666 10.1157 5.94633 9.85789 5.68934C9.79636 5.62801 9.72865 5.58932 12.1281 5.41931C14.5276 5.24929 19.3912 4.9547 22.2274 4.8526C25.0636 4.75051 25.725 4.84982 26.1573 4.89975C27.4258 5.04625 28.5508 4.66639 28.741 4.5768C28.7769 4.55988 28.6785 4.58088 27.5177 5.03847C26.3569 5.49606 24.134 6.38448 21.0765 7.13729C18.019 7.89009 14.1944 8.48036 12.1627 8.78444C10.131 9.08851 10.0081 9.08851 9.93537 9.12985C9.80135 9.20601 9.78415 9.44518 9.52072 9.96901C8.93452 11.1347 8.3005 12.0904 7.98334 12.4911C7.75367 12.7812 7.58461 12.9447 7.20207 14.2407C6.84185 15.461 6.23579 17.8498 5.90056 19.3655C5.44204 21.4387 5.57405 22.1176 5.69585 22.2273C6.07641 22.5701 7.36809 22.4109 8.0902 22.2311C8.24206 22.1933 8.36493 22.0535 8.89722 21.4963C9.42951 20.9391 10.352 19.9294 10.9892 19.1358C12.0218 17.8495 12.3965 16.954 12.6018 16.4077C12.9636 15.4449 12.8788 14.6041 12.4159 13.5C11.4809 11.2702 11.1849 10.7912 11.2279 10.4204C11.2302 10.401 11.2695 10.5201 11.2914 11.3126C11.3132 12.1051 11.3341 13.589 11.3361 14.4263C11.3384 15.4097 11.2688 15.644 11.1537 15.7907C10.784 16.2616 9.83384 15.8531 9.40679 15.666C9.24011 15.593 9.13363 15.4612 9.10808 15.3815C8.92482 14.8097 10.8999 16.3949 12.4793 16.7388C12.9245 16.8358 13.4247 16.7724 13.9815 16.697C14.5383 16.6215 15.1457 16.4765 16.8496 15.6848C18.5535 14.8931 21.3356 13.4591 23.7743 12.4988C26.213 11.5386 28.2238 11.0955 29.2188 10.92C30.2138 10.7445 30.1319 10.8499 29.4452 11.5001C28.7585 12.1502 27.4694 13.3419 26.659 14.0466C25.8486 14.7513 25.556 14.933 25.2083 15.1224C24.8606 15.3118 24.4666 15.5034 22.4882 16.076C20.5099 16.6486 16.9592 17.5964 14.7219 18.1394C12.4847 18.6823 11.6685 18.7918 11.3006 18.8929C10.9327 18.994 11.0378 19.0835 11.7682 19.1442C12.4986 19.2048 13.8512 19.2338 15.9105 19.0787C17.9698 18.9236 20.6947 18.5834 22.3731 18.3285C24.0515 18.0736 24.6007 17.9143 25.3207 17.6426C26.9318 17.0348 27.8679 16.5403 28.0088 16.3167C28.1077 16.1598 28.2202 15.8902 28.153 15.8553C28.0859 15.8203 27.8249 16.0218 26.5747 16.7164C25.3246 17.4111 23.0931 18.5927 21.4885 19.3596C19.8838 20.1265 18.9735 20.4429 17.7485 20.7689C16.5236 21.0949 15.0117 21.4209 13.8878 21.7266C12.7639 22.0324 12.0737 22.3079 11.8189 22.4249C11.5641 22.542 11.7656 22.4921 12.9424 22.3418C14.1191 22.1916 16.265 21.9424 18.0463 21.6215C19.8276 21.3006 21.1793 20.9156 22.1744 20.6611C23.1695 20.4066 23.767 20.2942 24.4813 20.0942C26.0241 19.6624 27.3585 19.2381 28.1323 19.1673C28.3929 19.1435 28.3892 19.275 28.2683 19.4485C27.9535 19.9005 27.4557 20.2965 26.8234 20.742C26.4146 21.0301 25.7751 21.3663 25.0283 21.6875C23.4638 22.3606 22.2126 22.747 21.6397 23.0286C21.4163 23.1384 21.3194 23.1594 22.1861 23.1481C23.0529 23.1368 24.8837 23.087 26.253 22.9595C28.4895 22.7512 29.5966 22.4142 29.9869 22.46C30.1405 22.4781 30.1749 22.6141 30.1886 22.7185C30.2153 22.9228 30.1087 23.1571 29.9685 23.41C29.7974 23.653 28.8379 24.4773 27.4941 25.562C27.0142 25.944 26.9446 25.9841 26.8447 26.0247" stroke="white" stroke-width="5" stroke-linecap="round"/>
<path d="M24.412 26.1638C24.2578 26.2857 23.4808 27.0401 23.2032 27.1777C23.0081 27.2745 23.9461 27.5319 24.8214 27.7451C25.7141 27.9625 26.5923 27.9676 27.1164 28.0322C27.6659 28.0999 25.3699 29.1218 23.9601 29.9624C22.8598 30.6184 22.7758 31.3597 22.0728 32.6605C21.3953 33.5092 20.9886 33.8354 20.7582 34.1624C20.7161 34.251 20.6931 34.3339 20.6508 34.4377" stroke="white" stroke-width="5" stroke-linecap="round"/>
<path d="M34.2076 11.4119C34.2076 11.4064 34.2076 11.401 34.254 10.4233C34.3005 9.44573 34.3933 7.49612 34.3891 6.48424C34.3848 5.47236 34.2805 5.45729 34.1764 5.44427C34.0722 5.43126 33.9714 5.42075 33.9358 5.37638C33.8591 5.28106 35.0781 4.96727 36.9703 4.56944C37.7564 4.40417 38.165 4.20848 38.3783 4.17389C38.5916 4.13931 38.5911 4.24497 38.4838 5.84817C38.3766 7.45137 38.1626 10.5489 38.0646 12.5744C37.9666 14.5999 37.9912 15.4595 37.9731 16.1843C37.9409 17.4752 37.8475 18.6938 37.8905 19.7935C37.9188 20.5167 37.9852 21.5279 37.8889 22.5616C37.8606 22.8661 37.5933 22.6642 36.8072 21.2684C36.0211 19.8726 34.6526 17.2739 33.9346 15.8975C33.1801 14.4513 33.1398 14.2129 33.1035 13.8511C33.0828 13.6456 33.0911 13.3928 33.086 14.5565C33.0808 15.7201 33.0705 18.3073 33.0768 19.698C33.0856 21.6545 33.467 22.404 33.5786 22.5626C33.6452 22.6263 33.7323 22.6556 33.8272 22.6707C33.9221 22.6859 34.0223 22.6859 34.295 22.5393" stroke="white" stroke-width="5" stroke-linecap="round"/>
</svg>
