<svg width="42" height="42" viewBox="0 0 42 42" fill="none" xmlns="http://www.w3.org/2000/svg">
<path d="M31.9873 42H9.79374V14.9798L23.7649 0L25.9042 1.95983C26.1158 2.15828 26.2801 2.4325 26.3971 2.7825C26.5141 3.1325 26.5726 3.52328 26.5726 3.95483V4.55017L24.3334 14.9798H38.639C39.5304 14.9798 40.3104 15.3298 40.9789 16.0298C41.6474 16.7298 41.9816 17.5465 41.9816 18.48V22.7446C41.9816 22.9931 41.9871 23.2515 41.9982 23.52C42.0092 23.7884 41.9703 24.0452 41.8814 24.2902L35.6644 39.375C35.3662 40.104 34.8694 40.7239 34.1738 41.2345C33.4782 41.7448 32.7494 42 31.9873 42ZM13.1359 38.4998H32.422L38.639 23.1352V18.48H20.155L22.8293 5.91517L13.1359 16.4498V38.4998ZM9.79374 14.9798V18.48H3.34263V38.4998H9.79374V42H0V14.9798H9.79374Z" fill="white"/>
<path d="M6.17252 21.1448C5.99261 21.0367 5.81271 20.9285 5.79396 20.8232C5.60444 19.759 8.27707 19.8769 8.64361 19.7151C8.73494 19.6747 8.83185 19.6833 8.81643 19.6942C8.09356 20.2032 6.38608 19.69 5.89334 19.5689C5.52075 19.4772 5.17152 19.2723 4.76525 19.1507C4.67302 19.1231 4.58729 19.1137 4.59386 19.2382C4.6386 20.0851 5.23033 20.6273 5.75759 21.1682C6.26947 21.6933 6.99471 21.6831 7.47203 21.8208C7.65918 21.8748 7.6866 22.0216 7.71516 22.1601C7.74373 22.2986 7.76036 22.4564 7.64621 24.3883C7.53207 26.3202 7.28665 30.0213 7.0338 33.7344" stroke="white" stroke-width="5" stroke-linecap="round"/>
<path d="M5.86184 24.8926C5.91166 24.677 5.95468 24.2667 5.88428 23.7127C5.85261 23.4636 5.40157 22.8988 4.85157 22.2752C4.68437 22.0857 4.62208 22.2821 4.60103 22.4221C4.51788 22.9752 4.36854 24.0243 4.22382 24.6857C4.13451 25.0938 3.93319 26.0756 4.21681 28.2629C4.39931 29.6703 4.97263 31.6323 5.3013 32.8189C5.72787 34.359 5.99624 34.7914 6.15461 34.9455C6.30514 35.0918 6.57096 35.0102 6.80177 34.9509C7.41903 34.7923 8.05611 33.9312 8.77221 32.646C9.8229 30.7603 9.58656 30.3654 9.64061 30.2601C9.68294 30.1776 9.72757 30.575 9.69024 30.9336C9.64577 31.3607 9.18729 32.5322 8.61744 34.0792C8.31819 34.8916 8.29983 35.3351 8.31725 35.6876C8.34055 36.1591 8.72981 36.3046 8.80521 36.4096C9.20833 36.9707 6.20559 36.4034 5.33424 36.1705C4.74336 36.0126 4.45646 35.5359 4.1695 35.1418C4.13466 35.1118 4.15875 35.1985 4.17993 35.5604C4.2011 35.9223 4.21864 36.5567 4.13714 37.2348" stroke="white" stroke-width="5" stroke-linecap="round"/>
<path d="M20.9495 10.198C20.9544 9.80792 21.1293 7.94219 21.6796 7.13061C21.7628 7.00776 21.8971 6.99858 21.9245 7.00547C21.9518 7.01237 21.9163 7.08856 21.3197 7.85737C20.7231 8.62617 19.5665 10.0853 18.8308 11.0738C17.7681 12.502 17.4121 13.2905 17.1989 13.8468C16.8308 14.8077 16.7413 15.0478 16.5891 15.176C16.5182 15.2358 16.4911 15.3171 16.5834 15.3739C16.8617 15.5453 17.2842 15.4984 17.5707 15.4524C18.3277 15.3309 18.6683 13.9621 19.0729 13.5241C19.2446 13.3383 19.5851 13.1597 19.7012 13.0835C19.7256 13.0675 18.5556 14.0879 16.8802 15.5538C16.2199 16.1316 16.0209 16.159 15.8151 16.1652C15.3445 16.1795 14.8778 15.8553 14.4412 15.7558C14.3555 15.7362 14.279 15.8001 14.2429 15.8593C14.2068 15.9184 14.2117 16.0016 14.2362 16.0847C14.4779 16.9071 16.5387 17.931 17.1788 18.2168C18.0036 18.585 19.1655 17.2223 19.3383 17.0674C19.3861 17.0245 19.2855 17.0002 19.162 17.0281C19.0385 17.0559 18.8778 17.1228 18.1989 17.5161C17.5201 17.9093 16.3278 18.6268 15.6708 19.0104C15.0137 19.394 14.9279 19.4219 17.6749 19.5044C20.4219 19.5869 26.0042 19.7232 28.9825 19.8045C32.1662 19.8914 32.5061 19.9308 32.7627 19.9135C33.4848 19.8651 34.3882 19.0988 35.0837 18.9143C35.5615 18.7876 36.1219 18.9071 36.4106 19.0704C36.5554 19.1523 36.6026 19.6725 36.6712 20.3829C36.7235 20.9247 36.5189 21.8638 36.2796 22.989C36.1645 23.5303 36.0824 23.8534 35.6063 24.6315C34.6254 26.2347 33.758 27.4096 33.5712 27.8431C33.3992 28.2424 33.2939 29.3468 33.1365 30.8501C33.0379 31.7923 32.7584 32.461 32.3596 33.2487C31.5071 34.9325 31.1007 35.3914 30.9443 36.2463C30.8795 36.6005 30.8602 36.8258 30.798 36.8479C30.628 36.9085 31.3447 35.4636 32.1022 33.5751C32.6411 32.2317 33.1921 31.5819 33.5042 31.1316C34.2332 30.0797 34.4378 29.2007 34.7764 28.7205C34.8941 28.5535 35.1458 28.3469 35.2623 28.16C35.7107 27.4402 34.7266 26.2814 34.1694 25.6575C33.9035 25.3597 33.3796 24.9534 32.57 24.4807C31.7604 24.008 30.6528 23.5091 29.7862 23.1732C28.9197 22.8373 28.3279 22.6796 25.6641 22.4302C23.0002 22.1808 18.2824 21.8446 15.7926 21.6516C13.1817 21.4492 12.9958 21.3351 12.9367 21.3739C12.683 21.5403 13.178 22.2782 13.3015 23.5192C13.5105 25.6215 13.4581 27.0223 13.5062 27.1043C13.5746 27.2211 13.776 26.8164 14.9107 26.3034C15.9157 25.849 17.8561 25.1487 19.2571 24.6776C20.6582 24.2065 21.4774 24.0238 22.3059 23.9031C23.9392 23.665 25.2017 23.6903 26.0243 23.75C26.4313 23.7795 26.8119 23.8644 27.7994 24.1826C28.787 24.5009 30.3687 25.0645 31.2285 25.3788C32.0883 25.6931 32.1783 25.7411 32.2426 25.8093C32.3069 25.8776 32.3427 25.9647 32.3544 26.05C32.366 26.1353 32.3523 26.2163 32.2739 26.313C31.7066 27.0136 30.4012 27.2949 29.6134 27.5067C29.1817 27.6228 28.6727 27.7066 26.3935 27.7575C24.1144 27.8085 20.0772 27.8113 17.5766 27.8775C15.076 27.9437 14.2343 28.0732 13.7669 28.1601C13.2994 28.247 13.2317 28.2873 13.1802 28.3493C13.1288 28.4113 13.0956 28.4937 13.0944 28.5768C13.0932 28.6599 13.1249 28.7412 14.6343 28.8186C16.1437 28.8961 19.1297 28.9674 21.5886 29.1747C24.0474 29.3819 25.8886 29.7231 27.1948 29.9157C29.2071 30.2125 30.0429 30.2032 30.1882 30.3012C30.5984 30.578 30.1806 31.4091 29.9615 31.9397C29.8393 32.2356 29.3399 32.7087 28.3725 33.565C27.7802 34.0893 26.8849 34.6809 26.2872 35.0733C24.8742 36.0009 23.8819 36.1262 22.8462 36.2453C22.1273 36.3279 21.0052 36.34 20.2528 36.3435C19.1488 36.3485 18.2249 36.1024 17.1059 35.7133C15.3404 35.0995 15.0359 34.4885 14.7158 33.9184C14.5916 33.6972 14.2768 33.0694 13.8878 32.3067C13.7622 32.0605 13.9352 32.0365 15.5368 32.1269C17.1384 32.2172 20.2022 32.4064 22.1075 32.5478C24.6697 32.738 25.4498 32.9053 25.6555 33.0092C26.1295 33.2487 26.1083 34.8459 26.3177 35.6884C26.4627 36.2716 27.5432 36.2937 27.9403 36.4427C28.0263 36.475 28.0888 36.5251 28.0507 36.5654C27.9148 36.7091 26.8063 36.9613 25.198 37.4281C24.5075 37.6285 24.0565 37.6991 23.1955 37.7546C22.3345 37.8102 21.0732 37.8343 19.814 37.799C18.5549 37.7638 17.3361 37.6684 16.6665 37.6082C15.2845 37.2054 14.0019 36.5664 13.5701 36.5585C13.4652 36.5687 13.376 36.5892 13.1839 36.6099" stroke="white" stroke-width="5" stroke-linecap="round"/>
</svg>
