<svg width="43" height="43" viewBox="0 0 43 43" fill="none" xmlns="http://www.w3.org/2000/svg">
<path d="M31.9874 42.0341L9.79379 42.0104L9.82258 14.9903L23.8097 0.0253192L25.9469 1.98742C26.1583 2.1861 26.3223 2.4605 26.4389 2.81062C26.5555 3.16075 26.6136 3.55158 26.6131 3.98313L26.6125 4.57848L24.3623 15.0057L38.6678 15.021C39.5593 15.0219 40.3388 15.3728 41.0066 16.0735C41.6743 16.7742 42.0077 17.5913 42.0067 18.5247L42.0022 22.7893C42.0019 23.0378 42.0071 23.2963 42.0179 23.5647C42.0286 23.8332 41.9894 24.0899 41.9003 24.3348L35.6672 39.413C35.3683 40.1417 34.8708 40.761 34.1747 41.2709C33.4785 41.7805 32.7495 42.0349 31.9874 42.0341ZM13.1396 38.5138L32.4258 38.5343L38.6591 23.1763L38.6641 18.5212L20.1801 18.5015L22.8678 5.93949L13.1631 16.4638L13.1396 38.5138ZM9.82258 14.9903L9.81885 18.4904L3.36774 18.4835L3.34641 38.5034L9.79752 38.5102L9.79379 42.0104L5.28414e-05 42L0.0288402 14.9798L9.82258 14.9903Z" fill="#E3E3E3"/>
</svg>
